<mxfile host="Electron" modified="2024-04-24T10:49:22.645Z" agent="Mozilla/5.0 (Windows NT 10.0; Win64; x64) AppleWebKit/537.36 (KHTML, like Gecko) draw.io/23.1.5 Chrome/120.0.6099.109 Electron/28.1.0 Safari/537.36" etag="wr-XDHc6d5mdhMa6rabo" version="23.1.5" type="device">
  <diagram name="Страница — 1" id="o3YoSdVj7JrO2BulKwtw">
    <mxGraphModel dx="1450" dy="1021" grid="1" gridSize="10" guides="1" tooltips="1" connect="1" arrows="1" fold="1" page="0" pageScale="1" pageWidth="827" pageHeight="1169" math="0" shadow="0">
      <root>
        <mxCell id="0" />
        <mxCell id="1" parent="0" />
        <mxCell id="ZaRvYdXMQcDDwF8NbGuL-29" style="rounded=0;orthogonalLoop=1;jettySize=auto;html=1;entryX=1;entryY=0.5;entryDx=0;entryDy=0;" parent="1" source="gMsG1KRbTEmaOiDUdcrw-1" target="gMsG1KRbTEmaOiDUdcrw-4" edge="1">
          <mxGeometry relative="1" as="geometry" />
        </mxCell>
        <mxCell id="ZaRvYdXMQcDDwF8NbGuL-31" style="rounded=0;orthogonalLoop=1;jettySize=auto;html=1;entryX=1;entryY=0.5;entryDx=0;entryDy=0;" parent="1" source="gMsG1KRbTEmaOiDUdcrw-1" target="ZaRvYdXMQcDDwF8NbGuL-30" edge="1">
          <mxGeometry relative="1" as="geometry" />
        </mxCell>
        <mxCell id="AaQi-Z2t5KPC6FOXEwrR-10" style="rounded=0;orthogonalLoop=1;jettySize=auto;html=1;entryX=1;entryY=0.5;entryDx=0;entryDy=0;" parent="1" source="gMsG1KRbTEmaOiDUdcrw-1" target="ZaRvYdXMQcDDwF8NbGuL-19" edge="1">
          <mxGeometry relative="1" as="geometry" />
        </mxCell>
        <mxCell id="gMsG1KRbTEmaOiDUdcrw-1" value="Администратор " style="shape=umlActor;verticalLabelPosition=bottom;verticalAlign=top;html=1;outlineConnect=0;fillColor=#dae8fc;strokeColor=#6c8ebf;" parent="1" vertex="1">
          <mxGeometry x="700" y="-20" width="80" height="120" as="geometry" />
        </mxCell>
        <mxCell id="gMsG1KRbTEmaOiDUdcrw-3" value="Управление пользователями" style="ellipse;whiteSpace=wrap;html=1;fillColor=#dae8fc;strokeColor=#6c8ebf;" parent="1" vertex="1">
          <mxGeometry x="360" y="-90" width="200" height="80" as="geometry" />
        </mxCell>
        <mxCell id="gMsG1KRbTEmaOiDUdcrw-4" value="Управление проектами" style="ellipse;whiteSpace=wrap;html=1;fillColor=#dae8fc;strokeColor=#6c8ebf;" parent="1" vertex="1">
          <mxGeometry x="360" y="-180" width="200" height="80" as="geometry" />
        </mxCell>
        <mxCell id="ZaRvYdXMQcDDwF8NbGuL-7" style="rounded=0;orthogonalLoop=1;jettySize=auto;html=1;entryX=0;entryY=0.5;entryDx=0;entryDy=0;" parent="1" source="gMsG1KRbTEmaOiDUdcrw-15" target="ZaRvYdXMQcDDwF8NbGuL-1" edge="1">
          <mxGeometry relative="1" as="geometry" />
        </mxCell>
        <mxCell id="ZaRvYdXMQcDDwF8NbGuL-8" style="rounded=0;orthogonalLoop=1;jettySize=auto;html=1;entryX=0;entryY=0.5;entryDx=0;entryDy=0;" parent="1" source="gMsG1KRbTEmaOiDUdcrw-15" target="ZaRvYdXMQcDDwF8NbGuL-3" edge="1">
          <mxGeometry relative="1" as="geometry" />
        </mxCell>
        <mxCell id="gMsG1KRbTEmaOiDUdcrw-15" value="Пользователь &lt;br&gt;системы" style="shape=umlActor;verticalLabelPosition=bottom;verticalAlign=top;html=1;outlineConnect=0;fillColor=#f5f5f5;fontColor=#333333;strokeColor=#666666;" parent="1" vertex="1">
          <mxGeometry x="-30" y="-20" width="80" height="120" as="geometry" />
        </mxCell>
        <mxCell id="AaQi-Z2t5KPC6FOXEwrR-13" style="rounded=0;orthogonalLoop=1;jettySize=auto;html=1;entryX=0;entryY=0.5;entryDx=0;entryDy=0;" parent="1" source="ZaRvYdXMQcDDwF8NbGuL-1" target="gMsG1KRbTEmaOiDUdcrw-4" edge="1">
          <mxGeometry relative="1" as="geometry" />
        </mxCell>
        <mxCell id="AaQi-Z2t5KPC6FOXEwrR-14" style="rounded=0;orthogonalLoop=1;jettySize=auto;html=1;entryX=0;entryY=0.5;entryDx=0;entryDy=0;" parent="1" source="ZaRvYdXMQcDDwF8NbGuL-1" target="ZaRvYdXMQcDDwF8NbGuL-19" edge="1">
          <mxGeometry relative="1" as="geometry" />
        </mxCell>
        <mxCell id="AaQi-Z2t5KPC6FOXEwrR-16" style="rounded=0;orthogonalLoop=1;jettySize=auto;html=1;entryX=0;entryY=0.5;entryDx=0;entryDy=0;" parent="1" source="ZaRvYdXMQcDDwF8NbGuL-1" target="gMsG1KRbTEmaOiDUdcrw-3" edge="1">
          <mxGeometry relative="1" as="geometry" />
        </mxCell>
        <mxCell id="ZaRvYdXMQcDDwF8NbGuL-1" value="Менеджер " style="ellipse;whiteSpace=wrap;html=1;fillColor=#fff2cc;strokeColor=#d6b656;" parent="1" vertex="1">
          <mxGeometry x="120" y="-90" width="200" height="80" as="geometry" />
        </mxCell>
        <mxCell id="ZaRvYdXMQcDDwF8NbGuL-21" style="rounded=0;orthogonalLoop=1;jettySize=auto;html=1;entryX=0;entryY=0.5;entryDx=0;entryDy=0;" parent="1" source="ZaRvYdXMQcDDwF8NbGuL-3" target="ZaRvYdXMQcDDwF8NbGuL-19" edge="1">
          <mxGeometry relative="1" as="geometry" />
        </mxCell>
        <mxCell id="ZaRvYdXMQcDDwF8NbGuL-22" style="rounded=0;orthogonalLoop=1;jettySize=auto;html=1;" parent="1" source="ZaRvYdXMQcDDwF8NbGuL-3" target="ZaRvYdXMQcDDwF8NbGuL-20" edge="1">
          <mxGeometry relative="1" as="geometry" />
        </mxCell>
        <mxCell id="ZaRvYdXMQcDDwF8NbGuL-33" style="rounded=0;orthogonalLoop=1;jettySize=auto;html=1;entryX=0;entryY=0.5;entryDx=0;entryDy=0;" parent="1" source="ZaRvYdXMQcDDwF8NbGuL-3" target="ZaRvYdXMQcDDwF8NbGuL-32" edge="1">
          <mxGeometry relative="1" as="geometry" />
        </mxCell>
        <mxCell id="ZaRvYdXMQcDDwF8NbGuL-3" value="Разработчик" style="ellipse;whiteSpace=wrap;html=1;fillColor=#d5e8d4;strokeColor=#82b366;" parent="1" vertex="1">
          <mxGeometry x="120" y="180" width="200" height="80" as="geometry" />
        </mxCell>
        <mxCell id="ZaRvYdXMQcDDwF8NbGuL-19" value="Просмотр информации о проекте" style="ellipse;whiteSpace=wrap;html=1;fillColor=#d5e8d4;strokeColor=#82b366;" parent="1" vertex="1">
          <mxGeometry x="360" width="200" height="80" as="geometry" />
        </mxCell>
        <mxCell id="ZaRvYdXMQcDDwF8NbGuL-20" value="Обновление статуса задач" style="ellipse;whiteSpace=wrap;html=1;fillColor=#d5e8d4;strokeColor=#82b366;" parent="1" vertex="1">
          <mxGeometry x="360" y="180" width="200" height="80" as="geometry" />
        </mxCell>
        <mxCell id="ZaRvYdXMQcDDwF8NbGuL-28" style="rounded=0;orthogonalLoop=1;jettySize=auto;html=1;entryX=1;entryY=0.5;entryDx=0;entryDy=0;" parent="1" source="gMsG1KRbTEmaOiDUdcrw-1" target="gMsG1KRbTEmaOiDUdcrw-3" edge="1">
          <mxGeometry relative="1" as="geometry" />
        </mxCell>
        <mxCell id="ZaRvYdXMQcDDwF8NbGuL-30" value="Управление ролями &lt;br&gt;пользователей" style="ellipse;whiteSpace=wrap;html=1;fillColor=#dae8fc;strokeColor=#6c8ebf;" parent="1" vertex="1">
          <mxGeometry x="360" y="90" width="200" height="80" as="geometry" />
        </mxCell>
        <mxCell id="ZaRvYdXMQcDDwF8NbGuL-32" value="Добавление задач в проект" style="ellipse;whiteSpace=wrap;html=1;fillColor=#d5e8d4;strokeColor=#82b366;" parent="1" vertex="1">
          <mxGeometry x="360" y="270" width="200" height="80" as="geometry" />
        </mxCell>
      </root>
    </mxGraphModel>
  </diagram>
</mxfile>
